<svg xmlns="http://www.w3.org/2000/svg" width="234.178" height="57.685" class="svg-logo">
   <defs>
      <style>
         .brandname {
            fill: black;
         }

         @media (prefers-color-scheme: dark) {
            .brandname {
               fill: white;
            }
         }
      </style>
   </defs>
   <path class="mark"
      d="M26.572.805a1.29 1.29 0 0 0-1.29 1.29v3.739a1.29 1.29 0 0 1-1.292 1.291h-3.738a1.29 1.29 0 0 0-1.291 1.291v3.738a1.29 1.29 0 0 1-1.291 1.291h-3.738a1.29 1.29 0 0 0-1.291 1.291v3.737a1.29 1.29 0 0 1-1.291 1.29H7.61a1.29 1.29 0 0 0-1.29 1.29v3.74a1.29 1.29 0 0 1-1.292 1.291H1.291A1.29 1.29 0 0 0 0 27.373v3.74a1.29 1.29 0 0 0 1.291 1.291h3.738a1.29 1.29 0 0 1 1.291 1.29v3.74a1.29 1.29 0 0 0 1.291 1.29h3.739a1.29 1.29 0 0 1 1.29 1.29v3.74a1.29 1.29 0 0 0 1.292 1.29h3.738a1.29 1.29 0 0 1 1.29 1.29v3.74a1.29 1.29 0 0 0 1.292 1.291h3.738a1.29 1.29 0 0 1 1.291 1.291v3.739a1.29 1.29 0 0 0 1.291 1.29h3.739a1.29 1.29 0 0 0 1.29-1.29v-3.739a1.29 1.29 0 0 1 1.292-1.29h3.738a1.29 1.29 0 0 0 1.29-1.292v-3.74a1.29 1.29 0 0 1 1.292-1.29h3.738a1.29 1.29 0 0 0 1.291-1.29v-3.74a1.29 1.29 0 0 1 1.291-1.29h3.737a1.29 1.29 0 0 0 1.29-1.29v-3.74a1.29 1.29 0 0 1 1.292-1.29h3.738a1.29 1.29 0 0 0 1.29-1.29v-3.741a1.29 1.29 0 0 0-1.29-1.289h-3.738a1.29 1.29 0 0 1-1.291-1.291v-3.74a1.29 1.29 0 0 0-1.291-1.29h-3.737a1.29 1.29 0 0 1-1.29-1.29v-3.737a1.29 1.29 0 0 0-1.292-1.29h-3.738a1.29 1.29 0 0 1-1.291-1.292V8.416a1.29 1.29 0 0 0-1.291-1.291h-3.738a1.29 1.29 0 0 1-1.291-1.291V2.096A1.29 1.29 0 0 0 30.31.805h-3.739zm0 12.64h3.739a1.29 1.29 0 0 1 1.29 1.291v3.737a1.29 1.29 0 0 0 1.292 1.29h3.738a1.29 1.29 0 0 1 1.29 1.29v3.74a1.29 1.29 0 0 0 1.292 1.291h3.738a1.29 1.29 0 0 1 1.291 1.289v3.74a1.29 1.29 0 0 1-1.29 1.291h-3.74a1.29 1.29 0 0 0-1.29 1.29v3.74a1.29 1.29 0 0 1-1.291 1.29h-3.738a1.29 1.29 0 0 0-1.291 1.29v3.74a1.29 1.29 0 0 1-1.291 1.29h-3.739a1.29 1.29 0 0 1-1.29-1.29v-3.74a1.29 1.29 0 0 0-1.292-1.29h-3.738a1.29 1.29 0 0 1-1.291-1.29v-3.74a1.29 1.29 0 0 0-1.291-1.29h-3.738a1.29 1.29 0 0 1-1.291-1.29v-3.741a1.29 1.29 0 0 1 1.29-1.289h3.739a1.29 1.29 0 0 0 1.29-1.291v-3.74a1.29 1.29 0 0 1 1.292-1.29h3.738a1.29 1.29 0 0 0 1.291-1.29v-3.737a1.29 1.29 0 0 1 1.291-1.29zm-.29 12.639a1 1 0 0 0-1 1v4.32a1 1 0 0 0 1 1h4.32a1 1 0 0 0 1-1v-4.32a1 1 0 0 0-1-1h-4.32z"
      style="fill:#d4aa00;fill-rule:evenodd;stroke:none;stroke-width:.377953;stroke-linecap:round;stroke-linejoin:round;paint-order:fill markers stroke;stop-color:#000" />
   <g aria-label="feria artesana" class="brandname">
      <path
         d="M81.223 57.386v-3.92l-.373-.858v-7.02q0-1.866-1.157-2.911-1.12-1.045-3.472-1.045-1.606 0-3.174.522-1.53.486-2.613 1.344l-2.09-4.07q1.642-1.156 3.957-1.791 2.314-.635 4.704-.635 4.592 0 7.13 2.166 2.539 2.165 2.539 6.757v11.461zm-6.122.299q-2.352 0-4.032-.784-1.68-.821-2.576-2.203-.896-1.381-.896-3.098 0-1.792.858-3.136.896-1.344 2.8-2.091 1.904-.784 4.966-.784h5.338v3.397h-4.704q-2.053 0-2.837.672-.747.672-.747 1.68 0 1.12.859 1.792.896.635 2.427.635 1.456 0 2.613-.672 1.157-.71 1.68-2.053l.896 2.688q-.635 1.94-2.315 2.949-1.68 1.008-4.33 1.008zM91.938 57.386V37.301h5.563v5.675l-.784-1.643q.896-2.128 2.874-3.21 1.979-1.12 4.816-1.12v5.375q-.373-.037-.672-.037-.298-.037-.634-.037-2.39 0-3.883 1.38-1.456 1.345-1.456 4.22v9.482zM116.802 57.685q-3.547 0-5.525-1.792-1.98-1.83-1.98-5.413V32.858h5.825v17.547q0 1.27.672 1.979.672.672 1.83.672 1.38 0 2.351-.747l1.568 4.107q-.896.634-2.165.97-1.232.299-2.576.299zm-10.603-15.456v-4.48h13.926v4.48zM134.162 57.685q-3.435 0-6.048-1.344-2.576-1.344-3.995-3.659-1.418-2.352-1.418-5.338 0-3.024 1.38-5.34 1.42-2.351 3.846-3.658 2.427-1.344 5.488-1.344 2.95 0 5.302 1.27 2.389 1.232 3.77 3.584 1.382 2.314 1.382 5.562 0 .336-.038.784-.037.41-.074.784h-16.315V45.59h13.253l-2.24 1.008q0-1.568-.634-2.725-.635-1.158-1.755-1.792-1.12-.672-2.613-.672-1.494 0-2.651.672-1.12.634-1.755 1.829-.634 1.157-.634 2.763v.896q0 1.642.709 2.912.747 1.232 2.053 1.904 1.344.634 3.136.634 1.606 0 2.8-.485 1.232-.485 2.24-1.456l3.099 3.36q-1.381 1.568-3.472 2.427-2.09.82-4.816.82zM154.509 57.685q-2.576 0-4.966-.597-2.352-.635-3.733-1.568l1.941-4.182q1.382.859 3.248 1.419 1.904.523 3.734.523 2.016 0 2.837-.486.859-.485.859-1.344 0-.71-.672-1.045-.635-.373-1.718-.56-1.082-.187-2.39-.373-1.268-.187-2.575-.486-1.307-.336-2.39-.97-1.082-.635-1.754-1.718-.635-1.082-.635-2.8 0-1.904 1.083-3.36 1.12-1.456 3.21-2.277 2.091-.859 5.003-.859 2.054 0 4.182.448 2.128.448 3.546 1.307l-1.941 4.144q-1.456-.859-2.95-1.157-1.455-.336-2.837-.336-1.941 0-2.837.522-.896.523-.896 1.344 0 .747.635 1.12.672.374 1.754.598 1.083.224 2.352.41 1.307.15 2.614.486 1.306.336 2.352.97 1.082.598 1.754 1.68.672 1.046.672 2.763 0 1.867-1.12 3.323-1.12 1.418-3.248 2.24-2.09.82-5.114.82zM179.895 57.386v-3.92l-.373-.858v-7.02q0-1.866-1.157-2.911-1.12-1.045-3.472-1.045-1.606 0-3.174.522-1.53.486-2.613 1.344l-2.09-4.07q1.642-1.156 3.957-1.791 2.314-.635 4.704-.635 4.592 0 7.13 2.166 2.539 2.165 2.539 6.757v11.461zm-6.122.299q-2.352 0-4.032-.784-1.68-.821-2.576-2.203-.896-1.381-.896-3.098 0-1.792.858-3.136.896-1.344 2.8-2.091 1.904-.784 4.966-.784h5.338v3.397h-4.704q-2.053 0-2.837.672-.747.672-.747 1.68 0 1.12.859 1.792.896.635 2.427.635 1.456 0 2.613-.672 1.157-.71 1.68-2.053l.896 2.688q-.635 1.94-2.315 2.949-1.68 1.008-4.33 1.008zM202.818 37.002q2.39 0 4.256.97 1.904.934 2.987 2.913 1.082 1.941 1.082 5.003v11.498h-5.824V46.784q0-2.427-1.082-3.584-1.046-1.158-2.987-1.158-1.381 0-2.501.598-1.083.56-1.718 1.754-.597 1.195-.597 3.062v9.93h-5.824V37.301h5.563v5.563l-1.046-1.68q1.083-2.016 3.099-3.1 2.016-1.082 4.592-1.082zM228.727 57.386v-3.92l-.373-.858v-7.02q0-1.866-1.158-2.911-1.12-1.045-3.472-1.045-1.605 0-3.173.522-1.53.486-2.613 1.344l-2.09-4.07q1.642-1.156 3.957-1.791 2.314-.635 4.703-.635 4.592 0 7.131 2.166 2.539 2.165 2.539 6.757v11.461zm-6.123.299q-2.351 0-4.031-.784-1.68-.821-2.576-2.203-.896-1.381-.896-3.098 0-1.792.858-3.136.896-1.344 2.8-2.091 1.904-.784 4.966-.784h5.338v3.397h-4.704q-2.053 0-2.837.672-.747.672-.747 1.68 0 1.12.859 1.792.896.635 2.427.635 1.455 0 2.613-.672 1.157-.71 1.68-2.053l.896 2.688q-.635 1.94-2.315 2.949-1.68 1.008-4.33 1.008z" />
      <path
         d="M70.117 29.381V8.848q0-3.397 2.016-5.413 2.016-2.054 5.749-2.054 1.27 0 2.427.262 1.194.261 2.016.821l-1.531 4.219q-.485-.336-1.083-.523-.597-.187-1.269-.187-1.27 0-1.979.747-.672.71-.672 2.165v1.867l.15 2.501v16.128Zm-3.099-15.157v-4.48h13.925v4.48zM93.562 29.68q-3.435 0-6.048-1.344-2.576-1.344-3.995-3.659-1.418-2.352-1.418-5.338 0-3.024 1.38-5.339 1.42-2.352 3.846-3.659 2.427-1.344 5.488-1.344 2.95 0 5.302 1.27 2.389 1.232 3.77 3.584 1.382 2.314 1.382 5.562 0 .336-.038.784-.037.411-.074.784H86.842v-3.397h13.253l-2.24 1.008q0-1.568-.634-2.725-.635-1.158-1.755-1.792-1.12-.672-2.613-.672-1.494 0-2.651.672-1.12.634-1.755 1.829-.634 1.157-.634 2.763v.896q0 1.642.709 2.912.747 1.232 2.053 1.904 1.344.634 3.136.634 1.606 0 2.8-.485 1.232-.485 2.24-1.456l3.099 3.36q-1.381 1.568-3.472 2.427-2.09.821-4.816.821zM107.151 29.381V9.296h5.563v5.675l-.784-1.643q.896-2.128 2.875-3.21 1.978-1.12 4.816-1.12v5.375q-.374-.037-.672-.037-.3-.037-.635-.037-2.39 0-3.883 1.381-1.456 1.344-1.456 4.219v9.482zM123.093 29.381V9.296h5.824v20.085Zm2.912-22.885q-1.606 0-2.614-.933-1.008-.934-1.008-2.315 0-1.381 1.008-2.315Q124.4 0 126.005 0q1.605 0 2.613.896 1.008.859 1.008 2.24 0 1.456-1.008 2.427-.97.933-2.613.933zM146.65 29.381v-3.92l-.373-.858v-7.019q0-1.867-1.158-2.912-1.12-1.045-3.472-1.045-1.605 0-3.173.522-1.53.486-2.613 1.344l-2.091-4.069q1.643-1.157 3.957-1.792 2.315-.635 4.704-.635 4.592 0 7.13 2.166 2.54 2.165 2.54 6.757v11.461zm-6.123.299q-2.352 0-4.032-.784-1.68-.821-2.576-2.203-.896-1.381-.896-3.098 0-1.792.859-3.136.896-1.344 2.8-2.091 1.904-.784 4.965-.784h5.339v3.397h-4.704q-2.053 0-2.837.672-.747.672-.747 1.68 0 1.12.859 1.792.896.635 2.426.635 1.456 0 2.614-.672 1.157-.71 1.68-2.053l.896 2.688q-.635 1.941-2.315 2.949-1.68 1.008-4.33 1.008z" />
   </g>
</svg>